<?xml version="1.0" standalone="no"?>
<!DOCTYPE svg PUBLIC "-//W3C//DTD SVG 20010904//EN"
 "http://www.w3.org/TR/2001/REC-SVG-20010904/DTD/svg10.dtd">
<svg version="1.0" xmlns="http://www.w3.org/2000/svg"
 width="25.000000pt" height="25.000000pt" viewBox="0 0 512.000000 512.000000"
 preserveAspectRatio="xMidYMid meet">

<g transform="translate(0.000000,512.000000) scale(0.100000,-0.100000)"
fill="white" stroke="none">
<path d="M3076 4777 c-14 -14 -26 -35 -26 -45 0 -18 -9 -20 -77 -24 -43 -2
-79 -1 -81 3 -2 5 -12 19 -23 33 -42 53 -149 19 -149 -48 0 -21 -8 -27 -71
-46 l-71 -21 -23 25 c-35 38 -76 34 -186 -20 -402 -195 -666 -548 -745 -994
-8 -47 -17 -134 -21 -195 -5 -103 -4 -112 17 -137 12 -16 30 -28 41 -28 17 0
19 -8 19 -69 l0 -68 -87 18 c-126 26 -319 39 -450 29 -167 -13 -312 -45 -355
-79 -26 -21 -30 -79 -8 -106 27 -33 53 -34 156 -7 92 24 116 26 319 26 189 0
233 -3 315 -21 738 -166 1279 -716 1425 -1450 21 -106 30 -132 51 -150 14 -13
33 -23 43 -23 20 0 32 -53 30 -139 -1 -41 -5 -50 -40 -80 l-39 -33 -46 40
c-25 23 -79 58 -120 79 l-74 38 -74 -38 c-41 -21 -95 -56 -120 -78 l-46 -41
-46 41 c-25 22 -79 57 -120 78 l-74 38 -74 -38 c-41 -21 -95 -56 -120 -78
l-46 -41 -46 41 c-25 22 -79 57 -120 78 l-74 38 -77 -40 c-51 -25 -102 -63
-146 -105 l-67 -66 -38 39 c-84 89 -230 154 -356 159 -63 3 -69 1 -92 -25
l-24 -28 0 -425 0 -425 25 -24 24 -25 1471 0 1471 0 24 25 25 24 0 425 0 425
-24 28 c-23 26 -29 28 -92 25 -37 -1 -98 -13 -136 -26 l-68 -22 0 85 0 86 33
15 c37 17 39 24 63 170 22 135 21 156 -5 183 -28 30 -27 42 9 104 29 50 30 51
69 46 35 -5 44 -2 71 25 31 32 40 78 19 99 -9 9 0 19 36 42 71 45 83 47 114
17 26 -25 32 -26 137 -25 120 1 177 -10 241 -47 72 -42 112 -111 128 -220 l7
-51 -66 0 c-206 -1 -368 -176 -354 -383 9 -126 77 -229 190 -291 60 -33 68
-34 168 -34 91 0 111 3 150 24 101 54 154 116 190 221 27 79 23 171 -11 250
-21 50 -22 53 -5 79 41 64 106 203 129 276 92 293 43 576 -143 823 -134 179
-346 322 -594 403 -278 91 -636 93 -942 5 l-114 -33 0 94 c0 77 3 93 15 93 9
0 27 11 40 25 24 23 25 29 25 157 1 283 59 427 198 495 50 25 68 28 147 27 68
0 104 -6 148 -23 32 -13 56 -26 55 -29 -57 -107 -63 -128 -63 -217 1 -77 5
-98 28 -145 38 -80 86 -131 159 -171 60 -33 67 -34 168 -34 101 0 108 1 168
34 72 39 121 91 160 171 23 47 27 67 27 145 0 82 -3 97 -33 157 -36 73 -87
124 -166 167 -42 23 -51 33 -74 92 -50 123 -102 199 -212 309 -74 73 -130 120
-188 153 -204 120 -429 187 -684 203 -94 7 -97 6 -122 -19z m-545 -412 c24
-17 57 -50 74 -74 28 -40 30 -49 30 -131 0 -82 -2 -91 -30 -131 -17 -24 -50
-57 -74 -74 -40 -28 -49 -30 -131 -30 -82 0 -91 2 -131 30 -72 50 -103 104
-107 185 -5 83 8 124 53 177 54 64 105 85 197 81 66 -3 82 -7 119 -33z m1783
-489 c47 -35 74 -79 82 -131 17 -119 -74 -225 -196 -225 -170 0 -261 197 -150
324 46 52 85 67 161 64 55 -3 73 -9 103 -32z m-1486 -52 c71 -49 67 -170 -8
-209 -88 -46 -180 13 -180 116 0 33 6 47 34 75 29 29 41 34 83 34 28 0 58 -7
71 -16z m555 -998 c103 -43 128 -177 48 -257 -65 -65 -157 -65 -222 0 -124
123 13 325 174 257z m1326 -1256 c185 -94 116 -369 -92 -370 -142 0 -237 147
-178 275 47 102 171 146 270 95z m-3405 -501 c92 -48 165 -136 196 -236 16
-52 20 -93 20 -209 l0 -144 -160 0 -160 0 0 314 0 315 31 -9 c18 -5 50 -19 73
-31z m1086 -8 c92 -69 90 -61 90 -338 l0 -243 -160 0 -160 0 0 240 c0 163 4
247 12 265 14 31 122 115 148 115 10 0 42 -18 70 -39z m960 0 c92 -69 90 -61
90 -338 l0 -243 -160 0 -160 0 0 240 c0 163 4 247 12 265 14 31 122 115 148
115 10 0 42 -18 70 -39z"/>
<path d="M501 2974 c-59 -49 -31 -138 43 -138 79 0 119 91 62 141 -35 30 -67
29 -105 -3z"/>
<path d="M252 2765 c-42 -35 -133 -174 -165 -250 -102 -245 -85 -523 49 -785
24 -47 51 -97 60 -111 17 -26 16 -29 -6 -80 -68 -160 -6 -359 140 -447 74 -44
121 -55 215 -50 62 4 92 11 133 32 71 36 138 104 170 174 23 48 27 71 27 147
0 77 -4 99 -27 147 -32 69 -106 145 -169 176 -55 27 -148 44 -191 35 l-31 -6
7 59 c21 173 135 265 331 266 190 1 318 -78 403 -248 41 -81 59 -148 76 -278
11 -92 17 -113 36 -128 32 -26 76 -23 105 7 30 29 32 71 10 201 -56 327 -222
534 -475 595 -83 20 -251 15 -331 -10 -179 -56 -290 -194 -315 -391 l-6 -54
-26 49 c-65 129 -98 283 -89 415 11 142 57 261 147 381 54 70 63 111 33 148
-29 35 -74 37 -111 6z m382 -1209 c156 -118 79 -356 -114 -356 -145 0 -241
146 -181 275 37 81 99 117 192 113 54 -3 73 -9 103 -32z"/>
</g>
</svg>
